<svg xmlns="http://www.w3.org/2000/svg" viewBox="0 0 900 264" width="180" height="53">
	<style>
		tspan { white-space:pre }
		.shp0 { fill: #121212 }
	</style>
	<g id="Dark">
		<path id="Shape 3 copy" class="shp0" d="M33 7L243 7C254.06 7 263 15.94 263 27L263 237C263 248.06 254.06 257 243 257L33 257C21.94 257 13 248.06 13 237L13 27C13 15.94 21.94 7 33 7Z" />
		<path id="DEV HOOKS  copy" fill="#121212" d="M313.48 170.89L313.48 93.01Q318.65 92.35 323.82 92.02Q328.99 91.58 334.93 91.58Q355.61 91.58 366.39 101.7Q377.17 111.71 377.17 132.5Q377.17 153.18 366.17 162.75Q355.17 172.21 333.61 172.21Q328.33 172.21 323.49 171.88Q318.65 171.55 313.48 170.89ZM331.52 107.75L331.52 156.15Q336.91 156.7 341.75 156.15Q346.59 155.6 350.22 153.07Q353.96 150.54 356.05 145.59Q358.25 140.53 358.25 132.17Q358.25 124.8 356.49 120.07Q354.84 115.34 351.87 112.59Q349.01 109.73 345.16 108.63Q341.42 107.53 337.24 107.53Q336.03 107.53 334.49 107.53Q333.06 107.53 331.52 107.75ZM390.48 171L390.48 92.35L436.79 92.35Q435.69 96.53 434.59 100.27Q433.49 104.01 432.39 107.97L408.19 107.97Q408.19 108.41 408.3 109.29Q408.41 110.06 408.41 110.5L408.41 122.05L430.63 122.05L430.63 137.78L408.41 137.78L408.41 152.85L408.19 155.38L437.23 155.38L437.23 171L390.48 171ZM466.49 171L441.3 92.35L460.55 92.35L475.84 146.25L476.5 149.33L476.72 147.79Q476.72 147.24 476.94 146.8Q477.05 146.58 477.05 146.36L492.56 92.35L511.15 92.35L485.74 171L466.49 171ZM547.01 171L547.01 92.35L565.05 92.35L565.05 122.05L588.48 122.05L588.48 92.35L606.52 92.35L606.52 171L588.48 171L588.48 137.45Q587.82 137.56 587.27 137.67L585.95 137.89L567.47 137.89L565.05 137.45L565.05 171L547.01 171ZM651.4 172.21Q642.38 172.21 636 169.13Q629.73 166.05 625.66 160.66Q621.7 155.27 619.83 147.9Q617.96 140.42 617.96 131.62Q617.96 122.82 619.83 115.45Q621.7 107.97 625.66 102.69Q629.73 97.3 636 94.33Q642.38 91.36 651.4 91.36Q660.42 91.36 666.69 94.33Q673.07 97.3 677.03 102.69Q681.1 107.97 682.86 115.45Q684.73 122.82 684.73 131.62Q684.73 140.42 682.86 147.9Q681.1 155.27 677.03 160.66Q673.07 166.05 666.69 169.13Q660.42 172.21 651.4 172.21ZM651.4 156.81Q658.99 156.81 662.29 150.54Q665.7 144.27 665.7 131.62Q665.7 118.97 662.4 113.03Q659.21 107.09 651.51 107.09Q643.7 107.09 640.29 113.03Q636.99 118.97 636.99 131.62Q636.99 144.27 640.29 150.54Q643.7 156.81 651.4 156.81ZM726.75 172.21Q717.73 172.21 711.35 169.13Q705.08 166.05 701.01 160.66Q697.05 155.27 695.18 147.9Q693.31 140.42 693.31 131.62Q693.31 122.82 695.18 115.45Q697.05 107.97 701.01 102.69Q705.08 97.3 711.35 94.33Q717.73 91.36 726.75 91.36Q735.77 91.36 742.04 94.33Q748.42 97.3 752.38 102.69Q756.45 107.97 758.21 115.45Q760.08 122.82 760.08 131.62Q760.08 140.42 758.21 147.9Q756.45 155.27 752.38 160.66Q748.42 166.05 742.04 169.13Q735.77 172.21 726.75 172.21ZM726.75 156.81Q734.34 156.81 737.64 150.54Q741.05 144.27 741.05 131.62Q741.05 118.97 737.75 113.03Q734.56 107.09 726.86 107.09Q719.05 107.09 715.64 113.03Q712.34 118.97 712.34 131.62Q712.34 144.27 715.64 150.54Q719.05 156.81 726.75 156.81ZM813.54 171L790.44 131.07L811.12 92.46L831.03 92.46L810.24 130.3L833.56 171L813.54 171ZM772.29 171.11L772.29 106.1L763.93 106.1L771.08 92.35L790.11 92.35L790.11 171.11L772.29 171.11ZM861.61 138.44L855.12 135.91Q851.6 134.48 848.52 132.72Q845.55 130.96 843.35 128.54Q841.15 126.01 839.94 122.71Q838.73 119.3 838.73 114.68Q838.73 108.96 840.71 104.67Q842.69 100.27 846.21 97.3Q849.84 94.33 854.9 92.79Q859.96 91.25 866.12 91.25Q871.18 91.25 876.46 92.35Q881.74 93.34 889.11 95.87L881.63 109.29Q874.48 105.88 866.56 105.88Q865.02 105.88 863.37 106.21Q861.72 106.54 860.4 107.42Q859.08 108.19 858.2 109.62Q857.32 111.05 857.32 113.36Q857.32 115.23 857.98 116.44Q858.75 117.65 859.85 118.53Q860.95 119.41 862.38 120.07Q863.81 120.62 865.24 121.17L871.73 123.7Q875.91 125.35 879.32 127.22Q882.84 128.98 885.26 131.62Q887.68 134.15 889 137.89Q890.32 141.63 890.32 147.24Q890.32 152.85 888.23 157.47Q886.25 162.09 882.29 165.39Q878.44 168.58 872.72 170.45Q867 172.21 859.63 172.21Q856.22 172.21 853.36 171.99Q850.5 171.77 847.75 171.22Q845.11 170.67 842.36 169.9Q839.72 169.13 836.64 167.92L840.38 152.52Q844.89 153.73 849.18 154.72Q853.58 155.6 858.09 155.6Q864.14 155.6 867.33 154.06Q870.52 152.41 871.07 147.9Q871.29 145.59 870.52 144.05Q869.75 142.51 868.32 141.52Q866.89 140.42 865.13 139.76Q863.37 139.1 861.61 138.44Z" />
		<path id="D " fill="#ffffff" d="M127.97 203.92L110.86 203.92L81.64 203.92L81.64 174.7L110.86 174.7L115.94 174.7L126.64 174.7L131.25 174.7Q147.42 174.7 159.77 163.38Q172.11 151.97 173.13 135.02Q173.13 135.02 173.13 134.94Q173.13 134.78 173.13 134.7Q173.13 134.23 173.2 134Q173.2 134 173.2 133.92Q173.2 133.77 173.2 133.69Q173.2 133.45 173.2 133.22Q173.2 132.91 173.2 132.59Q173.2 120.09 167.11 109.47Q161.09 98.77 148.75 92.98L148.75 92.98Q148.52 92.91 148.28 92.83Q148.13 92.75 147.97 92.59L147.97 92.59Q147.81 92.52 147.11 92.28L147.11 92.28Q143.36 90.72 139.22 89.78L139.22 89.78Q138.98 89.78 138.75 89.78Q138.52 89.7 138.28 89.7L138.28 89.7Q135.23 89.08 131.25 89.08L126.64 89.08L115.94 89.08L110.86 89.08L81.64 89.08L81.64 59.86L110.86 59.86L127.97 59.86L135.31 59.86Q136.95 59.86 138.05 60.02Q165 62.52 183.83 82.91Q202.66 103.22 202.66 130.95Q202.66 131.42 202.66 131.89Q202.66 132.36 202.66 132.83Q202.66 160.56 183.83 180.95Q165 201.27 138.05 203.69Q137.11 203.92 136.25 203.92L135.31 203.92L127.97 203.92Z" />
	</g>
</svg>